<svg width="350" height="350" xmlns="http://www.w3.org/2000/svg">

 <g>
  <title>Layer 1</title>
  <g>
   <path d="m-162.5,-20l500,0l0,500l-500,0l0,-500zm203.396,195.821c-3.808,0.534 -6.668,2.134 -8.981,5.236c-1.425,1.91 -2.337,3.989 -2.596,6.375c-0.552,5.087 -0.178,10.463 -0.175,15.593l0.022,30.15l-0.02,26.379c-0.001,4.622 -0.411,9.714 0.321,14.282q0.15,0.908 0.387,1.797q0.237,0.889 0.56,1.75q0.323,0.862 0.729,1.688q0.405,0.825 0.889,1.608q0.484,0.782 1.042,1.514q0.558,0.731 1.185,1.405q0.627,0.673 1.316,1.283q0.689,0.609 1.435,1.148c1.432,1.028 3.046,1.837 4.665,2.523c5.635,2.39 11.615,4.237 17.391,6.295c7.127,2.539 14.482,5.73 21.906,7.166c3.97,0.767 8.461,0.768 12.444,0.09c5.083,-0.864 9.932,-2.782 14.767,-4.511l16.273,-5.827c7.677,-2.676 15.605,-4.877 19.396,-12.837c0.903,-1.895 1.659,-3.886 1.834,-5.993c0.374,-4.524 0.211,-9.126 0.21,-13.665l-0.016,-22.269l0.003,-30.25c0.008,-5.475 0.169,-10.989 -0.013,-16.458c-0.058,-1.732 -0.123,-3.763 -0.684,-5.415c-1.081,-3.185 -4.024,-6.622 -7.077,-8.03c-1.426,-0.657 -2.913,-0.957 -4.469,-1.039c-6.442,-0.341 -13.014,-0.091 -19.468,-0.09l-36.239,0.014l-24.665,-0.012c-4.025,-0.003 -8.378,-0.316 -12.372,0.1z" transform="translate(0 -300) scale(2 2)" fill-opacity="0.24314" fill="#FEFEFE"/>
   <path d="m124.456,291.765l-16.273,5.827c-4.835,1.729 -9.684,3.647 -14.767,4.511c-3.983,0.678 -8.474,0.677 -12.444,-0.09c-7.424,-1.436 -14.779,-4.627 -21.906,-7.166c-5.776,-2.058 -11.756,-3.905 -17.391,-6.295c-1.619,-0.686 -3.233,-1.495 -4.665,-2.523q-0.746,-0.539 -1.435,-1.148q-0.689,-0.61 -1.316,-1.283q-0.627,-0.674 -1.185,-1.405q-0.558,-0.732 -1.042,-1.514q-0.484,-0.783 -0.889,-1.608q-0.406,-0.826 -0.729,-1.688q-0.323,-0.861 -0.56,-1.75q-0.237,-0.889 -0.387,-1.797c-0.732,-4.568 -0.322,-9.66 -0.321,-14.282l0.02,-26.379l-0.022,-30.15c-0.003,-5.13 -0.377,-10.506 0.175,-15.593c0.259,-2.386 1.171,-4.465 2.596,-6.375c2.313,-3.102 5.173,-4.702 8.981,-5.236c3.994,-0.416 8.347,-0.103 12.372,-0.1l24.665,0.012l36.239,-0.014c6.454,-0.001 13.026,-0.251 19.468,0.09c1.556,0.082 3.043,0.382 4.469,1.039c3.053,1.408 5.996,4.845 7.077,8.03c0.561,1.652 0.626,3.683 0.684,5.415c0.182,5.469 0.021,10.983 0.013,16.458l-0.003,30.25l0.016,22.269c0.001,4.539 0.164,9.141 -0.21,13.665c-0.175,2.107 -0.931,4.098 -1.834,5.993c-3.791,7.96 -11.719,10.161 -19.396,12.837zm-82.815,-107.186c-1.697,0.688 -2.701,1.767 -3.583,3.362c-0.279,6.382 -0.113,12.821 -0.112,19.209l-0.004,32.686l-0.001,20.053c0.001,4.051 -0.249,8.281 0.276,12.295c0.277,2.124 0.786,3.325 2.239,4.938c0.776,0.862 1.582,1.597 2.617,2.144c4.546,2.399 10.073,3.871 14.917,5.598c6.889,2.458 13.804,5.277 20.845,7.227c2.412,0.668 4.804,1.169 7.308,1.288c9.482,0.449 26.78,-7.194 36.518,-10.544c4.84,-1.7 9.808,-2.791 13.005,-7.137c0.072,-0.098 0.148,-0.192 0.217,-0.291c1.017,-1.437 1.065,-4.297 1.139,-6.021c0.272,-6.351 0.069,-12.774 0.07,-19.134l0.003,-35.507l-0.004,-17.416c-0.001,-2.896 0.311,-6.297 -0.215,-9.137c-0.27,-1.456 -1.607,-2.463 -2.687,-3.348c-3.928,-0.776 -8.488,-0.368 -12.5,-0.364l-21.62,0.025l-38.138,-0.006c-6.727,-0.001 -13.575,-0.263 -20.29,0.08z" transform="translate(0 -300) scale(2 2)"/>
   <path d="m38.058,187.941c0.882,-1.595 1.886,-2.674 3.583,-3.362c6.715,-0.343 13.563,-0.081 20.29,-0.08l38.138,0.006l21.62,-0.025c4.012,-0.004 8.572,-0.412 12.5,0.364c1.08,0.885 2.417,1.892 2.687,3.348c0.526,2.84 0.214,6.241 0.215,9.137l0.004,17.416l-0.003,35.507c-0.001,6.36 0.202,12.783 -0.07,19.134c-0.074,1.724 -0.122,4.584 -1.139,6.021c-0.069,0.099 -0.145,0.193 -0.217,0.291c-3.197,4.346 -8.165,5.437 -13.005,7.137c-9.738,3.35 -27.036,10.993 -36.518,10.544c-2.504,-0.119 -4.896,-0.62 -7.308,-1.288c-7.041,-1.95 -13.956,-4.769 -20.845,-7.227c-4.844,-1.727 -10.371,-3.199 -14.917,-5.598c-1.035,-0.547 -1.841,-1.282 -2.617,-2.144c-1.453,-1.613 -1.962,-2.814 -2.239,-4.938c-0.525,-4.014 -0.275,-8.244 -0.276,-12.295l0.001,-20.053l0.004,-32.686c-0.001,-6.388 -0.167,-12.827 0.112,-19.209zm30.251,21.123c-5.367,0.925 -9.854,3.7 -13.015,8.178c-3.012,4.266 -4.374,9.457 -3.458,14.629c0.546,3.083 1.807,5.671 3.675,8.171c3.61,4.831 10.935,11.051 15.522,15.455c3.667,3.521 7.686,8.068 11.785,10.965c1.895,1.339 4.316,2.095 6.624,1.613c4.843,-1.012 10.392,-7.771 13.885,-11.191l8.522,-8.25c5.869,-5.685 11.497,-11.132 11.593,-19.889q0.002,-0.493 -0.02,-0.986q-0.023,-0.493 -0.07,-0.984q-0.047,-0.491 -0.119,-0.979q-0.072,-0.489 -0.168,-0.973q-0.097,-0.483 -0.217,-0.962q-0.121,-0.478 -0.265,-0.95q-0.145,-0.472 -0.313,-0.936q-0.168,-0.464 -0.359,-0.919q-0.191,-0.455 -0.404,-0.899q-0.214,-0.445 -0.45,-0.878q-0.235,-0.434 -0.492,-0.855q-0.258,-0.421 -0.536,-0.829q-0.278,-0.407 -0.576,-0.8q-0.298,-0.393 -0.615,-0.771q-0.318,-0.378 -0.654,-0.739q-0.336,-0.361 -0.69,-0.705c-3.706,-3.672 -8.928,-5.632 -14.129,-5.539c-5.39,0.097 -10.5,2.234 -14.213,6.158q-0.615,0.656 -1.202,1.337c-3.667,-4.226 -8.532,-7.136 -14.187,-7.553c-1.82,-0.134 -3.637,-0.036 -5.454,0.081z" transform="translate(0 -300) scale(2 2)" fill-opacity="0.24314" fill="#FEFEFE"/>
   <path d="m103.327,256.884c-3.493,3.42 -9.042,10.179 -13.885,11.191c-2.308,0.482 -4.729,-0.274 -6.624,-1.613c-4.099,-2.897 -8.118,-7.444 -11.785,-10.965c-4.587,-4.404 -11.912,-10.624 -15.522,-15.455c-1.868,-2.5 -3.129,-5.088 -3.675,-8.171c-0.916,-5.172 0.446,-10.363 3.458,-14.629c3.161,-4.478 7.648,-7.253 13.015,-8.178c1.817,-0.117 3.634,-0.215 5.454,-0.081c5.655,0.417 10.52,3.327 14.187,7.553q0.587,-0.681 1.202,-1.337c3.713,-3.924 8.823,-6.061 14.213,-6.158c5.201,-0.093 10.423,1.867 14.129,5.539q0.354,0.344 0.69,0.705q0.336,0.361 0.654,0.739q0.317,0.378 0.615,0.771q0.298,0.393 0.576,0.8q0.278,0.408 0.536,0.829q0.257,0.421 0.492,0.855q0.236,0.433 0.45,0.878q0.213,0.444 0.404,0.899q0.191,0.455 0.359,0.919q0.168,0.464 0.313,0.936q0.144,0.472 0.265,0.95q0.12,0.479 0.216,0.962q0.097,0.484 0.169,0.973q0.072,0.488 0.119,0.979q0.047,0.491 0.07,0.984q0.022,0.493 0.02,0.986c-0.096,8.757 -5.724,14.204 -11.593,19.889l-8.522,8.25z" transform="translate(0 -300) scale(2 2)"/>
  </g>
 </g>
</svg>